# xmcd CD database file
#
# Track frame offsets:
#	150
#	22490
#	43837
#
# Disc length: 879 seconds
#
# Revision: 0
# Processed by: cddbd v1.5.1PL0 Copyright (c) Steve Scherf et al.
# Submitted via: CDex 1.51
#
DISCID=27036d03
DTITLE=沢田知可子 - Day by day
DYEAR=1995
DGENRE=JPop
TTITLE0=Day by day
TTITLE1=女ともだち
TTITLE2=Day by day（オリジナルカラオケ）
EXTD=YEAR: 1995
EXTT0=
EXTT1=
EXTT2=
PLAYORDER=
